<?xml version="1.0" encoding="utf-8"?>
<!-- Generator: Adobe Illustrator 16.1.0, SVG Export Plug-In . SVG Version: 6.00 Build 0)  -->
<!DOCTYPE svg PUBLIC "-//W3C//DTD SVG 1.1//EN" "http://www.w3.org/Graphics/SVG/1.1/DTD/svg11.dtd">
<svg version="1.1" id="Layer_1" xmlns="http://www.w3.org/2000/svg" xmlns:xlink="http://www.w3.org/1999/xlink" x="0px" y="0px"
	 width="177.875px" height="41.572px" viewBox="0 0 177.875 41.572" enable-background="new 0 0 177.875 41.572"
	 xml:space="preserve">
<path fill="#FFFFFF" d="M54.46,37.584c-0.096,0.672,0.24,1.104,0.912,1.104h3.12c0.384,0,0.816-0.336,0.864-0.672l3.456-21.454
	c0.048,0,0.144,0,0.192,0L71.69,38.64c0.096,0.288,0.432,0.528,0.816,0.528h0.864c0.432,0,0.72-0.24,0.816-0.528l8.639-22.078
	c0,0,0.096,0,0.144,0l3.552,21.454c0.096,0.336,0.48,0.672,0.912,0.672h3.12c0.672,0,1.008-0.432,0.864-1.104L85.513,5.332
	c-0.096-0.384-0.48-0.72-0.864-0.72h-0.768c-0.336,0-0.72,0.24-0.816,0.528l-9.983,24.525H72.89L62.859,5.14
	c-0.096-0.288-0.528-0.528-0.816-0.528h-0.768c-0.384,0-0.768,0.336-0.864,0.72L54.46,37.584z"/>
<path fill="#FFFFFF" d="M100.875,37.776c0,0.48,0.432,0.912,0.912,0.912h3.168c0.48,0,0.912-0.432,0.912-0.912V6.003
	c0-0.48-0.432-0.912-0.912-0.912h-3.168c-0.48,0-0.912,0.432-0.912,0.912V37.776z"/>
<path fill="#FFFFFF" d="M114.603,37.344c-0.384,0.624,0,1.344,0.864,1.344h3.696c0.384,0,0.672-0.24,0.816-0.432l7.439-12.287h0.096
	l7.535,12.287c0.096,0.192,0.432,0.432,0.816,0.432h3.696c0.816,0,1.2-0.672,0.816-1.344l-9.839-15.886l9.503-15.022
	c0.384-0.624,0-1.344-0.816-1.344h-4.08c-0.384,0-0.672,0.24-0.768,0.432l-6.863,11.471h-0.048l-6.767-11.471
	c-0.144-0.24-0.48-0.432-0.816-0.432h-4.08c-0.816,0-1.2,0.72-0.816,1.344l9.503,15.022L114.603,37.344z"/>
<path fill="#FFFFFF" d="M149.162,37.776c0,0.48,0.384,0.912,0.864,0.912h11.039c9.263,0,16.846-7.536,16.846-16.847
	c0-9.215-7.583-16.75-16.846-16.75h-11.039c-0.48,0-0.864,0.432-0.864,0.912V37.776z M154.057,34.128V9.651h6.335
	c7.055,0,12.191,5.136,12.191,12.191c0,7.103-5.135,12.287-12.191,12.287H154.057z"/>
<path fill="#FFFFFF" d="M25.182,25.542c0,0,17.632,4.98,19.35-4.56c0,0,0-0.001,0-0.002c0.009-0.041,0.016-0.083,0.024-0.125
	c0.518-2.873-1.393-5.623-4.266-6.14c-2.872-0.517-5.619,1.39-6.139,4.26l0,0c0,0,0,0.001-0.001,0.003c0,0.001,0,0.002,0,0.003
	c-0.001,0.009-0.003,0.018-0.004,0.027C34.049,19.555,32.617,26.881,25.182,25.542z"/>
<path fill="#FFFFFF" d="M19.458,15.946c0,0-17.632-4.981-19.35,4.561c0,0,0,0,0,0.001c-0.008,0.042-0.016,0.083-0.024,0.125
	c-0.518,2.874,1.392,5.623,4.266,6.141c2.872,0.517,5.619-1.39,6.139-4.261l0,0c0,0,0-0.001,0.001-0.002c0,0,0-0.002,0-0.003
	c0.002-0.008,0.003-0.018,0.004-0.026C10.592,21.934,12.023,14.607,19.458,15.946z"/>
<path fill="#FFFFFF" d="M27.25,20.341c0,0,13.293-12.608,5.97-18.962c0,0-0.001,0-0.001,0c-0.031-0.029-0.063-0.057-0.095-0.084
	c-2.206-1.914-5.545-1.677-7.459,0.528c-1.912,2.204-1.677,5.54,0.524,7.455l0,0c0,0,0.001,0,0.002,0.001
	c0.001,0.001,0.002,0.001,0.003,0.002c0.007,0.006,0.014,0.011,0.021,0.017C26.636,9.66,32.201,14.635,27.25,20.341z"/>
<path fill="#FFFFFF" d="M17.222,21.23c0,0-13.293,12.609-5.97,18.962c0,0.001,0.001,0.001,0.001,0.001
	c0.031,0.028,0.063,0.057,0.095,0.084c2.206,1.914,5.545,1.677,7.458-0.528c1.913-2.205,1.677-5.541-0.524-7.454l0,0
	c0,0-0.001-0.001-0.002-0.002c-0.001-0.001-0.002-0.001-0.003-0.002c-0.007-0.006-0.014-0.011-0.02-0.017
	C17.837,31.912,12.272,26.938,17.222,21.23z"/>
<path fill="#FFFFFF" d="M24.968,15.485c0,0-4.468-17.769-13.596-14.503c0,0,0,0-0.001,0c-0.041,0.013-0.081,0.027-0.121,0.041
	c-2.75,0.984-4.181,4.01-3.198,6.759c0.983,2.748,4.005,4.179,6.753,3.2v0c0,0,0.001,0,0.002-0.001c0.001,0,0.002,0,0.003-0.001
	c0.009-0.002,0.017-0.005,0.026-0.009C15.359,10.781,22.424,8.372,24.968,15.485z"/>
<path fill="#FFFFFF" d="M20.065,26.087c0,0,4.468,17.769,13.596,14.504c0,0,0.001-0.001,0.001-0.001
	c0.04-0.013,0.08-0.027,0.121-0.041c2.749-0.984,4.181-4.01,3.197-6.759c-0.983-2.748-4.005-4.179-6.753-3.2l0,0
	c0,0-0.001,0-0.002,0c-0.001,0-0.002,0.001-0.004,0.001c-0.008,0.003-0.016,0.007-0.025,0.009
	C29.674,30.791,22.609,33.201,20.065,26.087z"/>
</svg>
